<svg id="Capa_1" data-name="Capa 1" xmlns="http://www.w3.org/2000/svg" viewBox="0 0 763.55 178.55"><defs><style>.cls-1{fill:#0068f3;}.cls-2{fill:#0097f4;}.cls-3{fill:#67c9fd;}.cls-4{fill:#0231be;}.cls-5{fill:#a6e6fe;}.cls-6{fill:#0148de;}.cls-7{fill:#fff;}</style></defs><path class="cls-1" d="M-796.59,238.74l0-.24a10.52,10.52,0,0,1,2.57,0v.08a15.73,15.73,0,0,1,3.16,2.7c7.8,7.88,15.81,15.56,23.69,23.36,4.9,4.84,9.72,9.76,14.71,14.49,4.51,4.27,8.74,8.82,13.27,13.06s8.9,9,13.5,13.27,8.65,8.71,13.12,12.9c4.67,4.37,9,9.06,13.66,13.43,4.48,4.19,8.64,8.71,13.12,12.9,4.66,4.36,9,9.06,13.65,13.42,4.46,4.17,8.6,8.66,13,12.83,4.69,4.39,9,9.11,13.73,13.5,4.42,4.15,8.54,8.61,13,12.75,4.71,4.41,9.13,9.12,13.8,13.58,1.42,1.35,2.85,2.69,4.25,4.06a3.06,3.06,0,0,1,.81,1.11l0,.88a3,3,0,0,1-1.16.07h-64.17c-.53-.07-.76-.49-1-.87q-8.49-12.79-16.9-25.63c-2.07-3.17-4.16-6.31-6.25-9.46-5.66-8.53-11.27-17.09-16.92-25.63q-8.88-13.42-17.72-26.88t-17.85-27.06q-9.06-13.75-18.14-27.51l-17.83-27.06q-2.21-3.36-4.42-6.7A7.58,7.58,0,0,1-796.59,238.74Z" transform="translate(796.62 -238.41)"/><path class="cls-2" d="M-613.57,415.91c-4-3.83-7.95-7.66-11.86-11.56-6.21-6.19-12.4-12.4-18.74-18.47-4.5-4.31-8.78-8.85-13.33-13.12s-8.85-8.9-13.42-13.19-8.84-8.9-13.42-13.19-8.79-8.86-13.34-13.12-8.84-8.9-13.42-13.19-8.79-8.86-13.34-13.12-8.74-8.8-13.26-13-8.9-9-13.5-13.27-8.74-8.8-13.26-13-8.9-9-13.5-13.27-8.79-8.75-13.25-13.05a30.63,30.63,0,0,1-2.85-2.73l4.27,0a4.61,4.61,0,0,1,1.25.59c3.85,2.77,7.86,5.31,11.79,8q9.35,6.31,18.74,12.6,16.07,10.78,32.14,21.62,9.68,6.5,19.35,13,16.24,10.94,32.49,21.87,10.31,6.92,20.59,13.86l31.87,21.45q3.6,2.42,7.19,4.84a2.24,2.24,0,0,1,.8.7c0,.28.05.56.05.85v57.32C-613.53,415.49-613.55,415.7-613.57,415.91Z" transform="translate(796.62 -238.41)"/><path class="cls-3" d="M-613.58,357.1a23,23,0,0,1-4-2.5c-8-5.32-15.9-10.69-23.85-16l-20.75-13.95-21.09-14.2-20.39-13.73-21.18-14.26-20.83-14-20.83-14-21-14.14c-.79-.54-1.55-1.13-2.32-1.69h6.43a106.1,106.1,0,0,1,10.87,3.55c4.67,1.57,9.31,3.22,14,4.82q18.38,6.33,36.72,12.69,10.72,3.69,21.44,7.41,17.39,6,34.79,12,11.28,3.87,22.56,7.79c9.37,3.24,18.73,6.51,28.12,9.71a2.46,2.46,0,0,1,1.35.81c0,.89,0,1.78,0,2.67v55.66C-613.53,356.17-613.56,356.63-613.58,357.1Z" transform="translate(796.62 -238.41)"/><path class="cls-4" d="M-796.53,416.79c0-.35-.09-.7-.09-1.05V247c0-.32,0-.64,0-1,.63.09.7.66.87,1.1q4.82,12.87,9.62,25.75,5.52,14.78,11,29.56,6.26,16.74,12.49,33.48,4.88,13.08,9.75,26.16,7,18.85,14.05,37.69c1.86,5,3.76,10,5.62,15a8.89,8.89,0,0,1,.44,1.32c.06.35.16.75-.42.76h-62.12A3.63,3.63,0,0,1-796.53,416.79Z" transform="translate(796.62 -238.41)"/><path class="cls-5" d="M-613.55,297.38l-15.94-5.51L-658.24,282l-22.49-7.78L-709,264.41l-22.5-7.78-22.69-7.84c-7.5-2.6-15-5.15-22.49-7.8a66.22,66.22,0,0,1-6.71-2.42c.46,0,.93,0,1.39,0h166.89c1.74,0,1.55-.2,1.55,1.52V296.1C-613.53,296.53-613.55,297-613.55,297.38Z" transform="translate(796.62 -238.41)"/><path class="cls-6" d="M-732.81,416.72q-2.66-7.2-5.31-14.4c-1.9-5.13-3.83-10.25-5.75-15.37l-7.23-19.37q-2.8-7.54-5.62-15.08l-7.23-19.37q-2.74-7.39-5.5-14.78-4.34-11.58-8.66-23.16-3.57-9.58-7.13-19.18-3.81-10.18-7.63-20.36c-1-2.77-2-5.53-3.06-8.3a4.14,4.14,0,0,0-.66-1.33v-7.28c1.63,2.07,3,4.33,4.44,6.51,1.9,2.83,3.75,5.7,5.63,8.55q6.09,9.21,12.16,18.42l12,18.17,12,18.16,12,18.16,11.86,18q6.08,9.21,12.16,18.43l12,18.16,12,18.25q5.67,8.59,11.32,17.19c-.31.26-.68.13-1,.13h-51.67C-732.13,416.86-732.51,417-732.81,416.72Z" transform="translate(796.62 -238.41)"/><path class="cls-7" d="M-45.4,396.21l.06,9.65a11,11,0,0,1,0,2.56,15.26,15.26,0,0,0-2,0c-.89.11-1-.28-1-1.06,0-6.79,0-13.59,0-20.38a10.55,10.55,0,0,1,3.41.06c1.23,2.3,2.43,4.6,3.67,6.88,1.5,2.75,3,5.48,4.55,8.22a1.87,1.87,0,0,0,.79.94,31.19,31.19,0,0,0-.09-3.9c0-2.7,0-5.41,0-8.12A1.8,1.8,0,0,0-36.2,390v-3c.14,0,0,0,.1,0,3-.28,3-.28,3,2.67v17.63a3.22,3.22,0,0,1-.08,1.16,3.25,3.25,0,0,0-.54,0c-2,.41-3.12-.43-4-2.25-2.37-4.66-5-9.2-7.5-13.79-.11,0-.23,0-.23.14A20.69,20.69,0,0,0-45.4,396.21Z" transform="translate(796.62 -238.41)"/><path class="cls-7" d="M-538.57,396l.05,9.65a11.75,11.75,0,0,1,0,2.78c-2.37,0-2.37,0-2.37-2.43q0-9.5,0-19a7.22,7.22,0,0,1,2.78.06c1.22,2.3,2.42,4.6,3.67,6.88,1.49,2.75,3,5.48,4.55,8.22.17.31.28.71.78.88a32,32,0,0,0-.09-4.05c0-2.65,0-5.3,0-7.95a2,2,0,0,0-.1-1v-3a10,10,0,0,1,2.79,0c0,6.78,0,13.55,0,20.32,0,.84-.12,1.29-1.06,1.1a1.55,1.55,0,0,0-.43,0,1.93,1.93,0,0,1-2.29-1.27c-2.64-4.95-5.38-9.85-8.08-14.77-.27,0-.26.18-.25.35A17.75,17.75,0,0,0-538.57,396Z" transform="translate(796.62 -238.41)"/><path class="cls-7" d="M-180.76,405.42a6.53,6.53,0,0,0,4.74-3.25,26.3,26.3,0,0,1,2.81-.06c.22,0,.42,0,.44.31a12,12,0,0,1-3.87,4.61c-2.77,1.79-7.56,2-10.47-.36a11.21,11.21,0,0,1-4.21-7.89,30.83,30.83,0,0,1,0-3.19c.35-4.19,3.67-8.38,7.33-9.16a9.42,9.42,0,0,1,11.17,6.28c0,.12.14.23.31.52a15.12,15.12,0,0,1-3-.05c-.77-.16-1.09-1.09-1.5-1.71-1.62-2.49-6-3.09-8.49-1a9.27,9.27,0,0,0-.65,13.14,4.93,4.93,0,0,0,3.64,1.82A2.55,2.55,0,0,0-180.76,405.42Z" transform="translate(796.62 -238.41)"/><path class="cls-7" d="M-209,398.58c-2.38,0-4.77,0-7.15,0-.68,0-.83.18-.81.83,0,1.52,0,3.05,0,4.58,0,.65.13.84.81.83,2.38-.05,4.77,0,7.15,0a15.83,15.83,0,0,1,0,3.64c-3.27,0-6.55,0-9.83,0-.77,0-.92-.21-.91-.94,0-6.83,0-13.67,0-20.5,2-.19,4.05,0,6.07-.08,1,0,1.92,0,2.88,0,.59,0,1.4-.3,1.72.16s.13,1.45.13,2.19c0,.56-.49.41-.81.41h-6.08a1.77,1.77,0,0,0-1,.11c-.19,1.83,0,3.68-.09,5.51,0,.62.39.47.71.47H-209A9.32,9.32,0,0,1-209,398.58Z" transform="translate(796.62 -238.41)"/><path class="cls-7" d="M-569.41,387v13.32a8,8,0,0,0,.09.84c.08.34-.12.72.13,1a3.82,3.82,0,0,0,2.94,3.44,3.36,3.36,0,0,0,3.49-2.84c.06-.33.34-.63.2-1,.23-.33,0-.73.16-1.08l0-13.72a10,10,0,0,1,2.79,0q0,7.28,0,14.56c-.23.33,0,.73-.15,1.08-.44,2-.91,3.93-2.87,5.08a10.94,10.94,0,0,1-2.33.76,8.13,8.13,0,0,1-1.48,0c-3.71-.17-5.18-2.65-5.67-6.1-.08-.34.11-.71-.13-1V387A10,10,0,0,1-569.41,387Z" transform="translate(796.62 -238.41)"/><path class="cls-7" d="M-453.65,391.53a7.14,7.14,0,0,1,1.26-3.45,4.9,4.9,0,0,1,5.16-1.81,5.26,5.26,0,0,1,4,5.52c0,.47-.15.64-.61.59a2.74,2.74,0,0,0-.64,0c-.94.1-1.55,0-1.58-1.26a2.27,2.27,0,0,0-2.44-2,2.48,2.48,0,0,0-2.24,2,3,3,0,0,0,2.15,3.79,17.9,17.9,0,0,1,3.62,1.58,4.74,4.74,0,0,1,2.12,3.78,8.61,8.61,0,0,1-1.68,6.41c-1.68,2.1-6.53,2.69-8.33-.47a8.13,8.13,0,0,1-1.18-3.4,6.05,6.05,0,0,1,.07-1.7h.32c.7,0,1.53-.21,2.08.09s.11,1.21.38,1.83c.42,1,.73,2,2,2.14a1.94,1.94,0,0,0,1.46,0,3.27,3.27,0,0,0,2.16-3.14,3.44,3.44,0,0,0-2-3.27,31.15,31.15,0,0,0-3-1.46,4.8,4.8,0,0,1-3-4.32A7.32,7.32,0,0,1-453.65,391.53Z" transform="translate(796.62 -238.41)"/><path class="cls-7" d="M-131.28,392.81c0,1.07.88,1.47,1.63,1.89,1.12.62,2.39.86,3.51,1.51a4.72,4.72,0,0,1,2.6,4.05,14.58,14.58,0,0,1,.2,1.76c-.25.32,0,.69-.13,1-.49,1.68-1,3.41-2.55,4.41-2.94,1.86-6.34,1.23-8-2.16a7.21,7.21,0,0,1-.71-3.44c0-.64.22-.81.79-.73a2.29,2.29,0,0,0,.64,0c1.1-.18,1.39.34,1.39,1.35a2.72,2.72,0,0,0,2.14,2.71,1.58,1.58,0,0,0,1.28,0,2.84,2.84,0,0,0,2.13-2.37,3.38,3.38,0,0,0,0-1.89c-.65-2-2.46-2.54-4.13-3.23-1.87-.77-3.34-1.89-3.63-4.07-.16-.41.1-.87-.17-1.26V392c.22-.34.05-.72.12-1.07.36-1.88,1.1-3.54,3-4.29,3.13-1.22,6.51-.11,7.14,4,.28,1.81.24,1.8-1.66,1.81-.59,0-.92,0-.92-.81a2.52,2.52,0,0,0-2.34-2.43,2.28,2.28,0,0,0-2.35,2.18A2.18,2.18,0,0,0-131.28,392.81Z" transform="translate(796.62 -238.41)"/><path class="cls-7" d="M-385.46,404.7c2,.18,4,0,6,.08a15.83,15.83,0,0,1,0,3.64h-8.82a2.49,2.49,0,0,1-.08-1.05V388.14c0-1.22,0-1.23,1.19-1.22,1.83,0,1.58-.26,1.58,1.57,0,5,0,10,0,15.06A2.06,2.06,0,0,0-385.46,404.7Z" transform="translate(796.62 -238.41)"/><path class="cls-7" d="M-105.47,397.63c0-3.24,0-6.48,0-9.72,0-.74.09-1.06,1-1,1.85.07,1.85,0,1.85,1.86,0,6.19,0,12.39,0,18.58,0,.87-.17,1.16-1.09,1.12-1.72-.09-1.72,0-1.72-1.75Z" transform="translate(796.62 -238.41)"/><path class="cls-7" d="M-362.45,397.6c0-3.23,0-6.47,0-9.71,0-.78.16-1,1-1,1.83.06,1.83,0,1.83,1.88,0,6.23,0,12.46,0,18.69,0,.81-.22,1-1,1-1.81-.05-1.81,0-1.81-1.76Z" transform="translate(796.62 -238.41)"/><path class="cls-7" d="M-152.68,387c0,6.8,0,13.6,0,20.4,0,.84-.2,1.07-1,1-1.76-.06-1.76,0-1.76-1.78q0-9.84,0-19.66A10.1,10.1,0,0,1-152.68,387Z" transform="translate(796.62 -238.41)"/><path class="cls-1" d="M-732.81,416.72l.85,0h52.12l.75,0,.07.07a.12.12,0,0,1-.11.15c-.47,0-.93-.06-1.39-.06H-795.27a2.45,2.45,0,0,1-1.26-.1c.43,0,.85,0,1.28,0h61C-733.74,416.76-733.27,416.73-732.81,416.72Z" transform="translate(796.62 -238.41)"/><path class="cls-7" d="M-33.34,331a1.84,1.84,0,0,0-.84-.08H-63.77a1.84,1.84,0,0,0-.84.08c0,1.65,0,3.3,0,4.95-.15.49.09,1-.15,1.51a11.69,11.69,0,0,1-.77,3.2,12.42,12.42,0,0,1-4,5.52,9.72,9.72,0,0,1-5.47,2.39c-.34.23-.74,0-1.08.16a41.7,41.7,0,0,1-5.59,0c-.34-.07-.72.12-1-.13a5.2,5.2,0,0,1-1-.08A13.39,13.39,0,0,1-91,343.84a11.85,11.85,0,0,1-2.9-7.64q0-17.11,0-34.22a4.93,4.93,0,0,1,0-.86A12.57,12.57,0,0,1-82.18,291a39.79,39.79,0,0,1,6.64,0,4.16,4.16,0,0,1,1.11.18,11.46,11.46,0,0,1,9.62,10.07c.24.48,0,1,.15,1.5,0,1.08,0,2.16,0,3.24a1.84,1.84,0,0,0,.84.08h29.59a1.84,1.84,0,0,0,.84-.08c0-4,0-8.06,0-12.08a26.83,26.83,0,0,0-1.26-7.78A27.3,27.3,0,0,0-39.79,276a19.7,19.7,0,0,0-8.48-6.12A60.16,60.16,0,0,0-61.4,267c-.33-.14-.73.09-1.05-.16l-1.09-.05c-.42-.15-.88.08-1.29-.16l-1.49-.06c-.7-.17-1.43.12-2.12-.16a22.06,22.06,0,0,1-3.25-.09q-3.19,0-6.39,0a22,22,0,0,1-3.25.09c-1.76.27-3.54,0-5.32.13a20,20,0,0,1-3,.09c-.63.26-1.29,0-1.93.16l-1.49.06c-.41.22-.86,0-1.29.11s-.73.06-1.1.09c-.32.24-.7.05-1,.13-1,.15-2,.2-2.92.34a53.68,53.68,0,0,0-8.11,1.72c-3.41,1-6.84,2.13-9.38,4.87-.5-.18-.25-.6-.26-.91,0-1.75,0-3.49,0-5.24,0-1.22,0-1.22-1.2-1.22H-245.45c-.48,0-1-.21-1.4.29-.62,2.55-1.64,5-2.37,7.5-1.15,4-2.53,7.9-3.79,11.84s-2.44,7.64-3.67,11.45c-1.57,4.87-3.12,9.75-4.74,14.61a62.89,62.89,0,0,1-2.23,6.58,12.76,12.76,0,0,1-.93-2.64q-3.21-9.8-6.39-19.6-3.58-11-7.18-22.09c-.94-2.88-2.06-5.7-2.75-8.66-.24-.24-.54-.14-.82-.14q-23.46,0-46.93,0c-.72,0-1,.17-1,.94.05,2.1,0,4.2,0,6.3,0,.28.28.76-.35.81a47.76,47.76,0,0,0-6.38-3c-5.89-2.19-12-3.2-18.21-4.1-.34-.15-.73.09-1.05-.17-.37,0-.75.1-1.1-.08s-.72.11-1-.13a3.67,3.67,0,0,1-1.32-.09c-.42-.07-.87.11-1.28-.11a7.65,7.65,0,0,1-1.72-.1A7.49,7.49,0,0,1-364,266l-2.6,0a1.55,1.55,0,0,0-.21,0q-23.42,0-46.85,0c-.72,0-.81.3-.8.89,0,2,0,3.92,0,5.88,0,.28.28.75-.32.84a43.31,43.31,0,0,0-7.45-3.43,93.44,93.44,0,0,0-17-3.69c-.34-.15-.73.09-1.05-.16a2.73,2.73,0,0,1-1.1-.09c-.34-.08-.72.11-1-.13l-1.09,0c-.48-.15-1,.1-1.48-.16l-1.52-.05c-.63-.17-1.29.11-1.91-.17a14.13,14.13,0,0,1-2.6-.08q-6.3,0-12.6,0a15.78,15.78,0,0,1-2.57.09,6.62,6.62,0,0,1-1.72.12,7,7,0,0,1-1.71.1c-.41.24-.87,0-1.29.15l-1.1,0c-.32.24-.69.05-1,.13-.58.1-1.16.24-1.75.3a58.59,58.59,0,0,0-8.13,1.31,46.34,46.34,0,0,0-9.53,3.16,35.37,35.37,0,0,0-4,2.52c-.21-2.09,0-4.18-.09-6.27,0-1.25,0-1.25-1.29-1.25h-73.57a2.53,2.53,0,0,0-1.06.08v106.6a2.55,2.55,0,0,0,1.06.08h29.12c1.19,0,1.2,0,1.2-1.23q0-20,0-40a2.06,2.06,0,0,1,.11-1.15c.39,0,.77-.08,1.16-.08h30.34c2.13,0,2.13,0,2.11,2.16a11.26,11.26,0,0,1,.13,2.32,5.35,5.35,0,0,1,.1,1.49c.21.34,0,.72.11,1.08.2,1.55.31,3.12.61,4.65a56.61,56.61,0,0,0,3.36,11.55,24.32,24.32,0,0,0,4.89,7.85c.69.7,1.55,1.17,2.24,1.83a19.83,19.83,0,0,0,4.38,3,44,44,0,0,0,9.32,3.55,67.64,67.64,0,0,0,7.16,1.55c2.65.44,5.32.67,8,1,.41.08.86-.11,1.25.13a4.91,4.91,0,0,1,1.53.08c.56.09,1.14-.12,1.69.13l2.37.05q5.67.12,11.34,0l2.35-.06a6.54,6.54,0,0,1,1.71-.12,5,5,0,0,1,1.5-.09c.41-.24.88,0,1.3-.16l1.06-.06c.33-.22.73,0,1.08-.15.9-.11,1.81-.17,2.7-.34,2.41-.45,4.82-.9,7.21-1.44a41.34,41.34,0,0,0,11.93-4.55c1.23-.72,2.18-1.8,3.45-2.43.2.3.08.63.09.94,0,2.45,0,4.91,0,7.36,0,1.15,0,1.15,1.16,1.15H-384a2.2,2.2,0,0,0,1-.08c0-10,0-19.94,0-29.91,0-.73.15-.95.92-.95,4.59,0,9.19,0,13.79,0a14.54,14.54,0,0,1,5.68,1.05,11.67,11.67,0,0,1,7.05,10.06,2.29,2.29,0,0,1,.1,1.16V371.3c0,1.44-.18,1.33,1.3,1.33H-300c1.62,0,1.62,0,1.62-1.67q0-31.27,0-62.54c0-.38-.26-.85.23-1.14.92,3.13,1.83,6.27,2.76,9.4.67,2.25,1.38,4.49,2,6.74.92,3.06,1.81,6.13,2.73,9.19.71,2.38,1.46,4.75,2.16,7.13.89,3,1.73,6.1,2.62,9.14.68,2.27,1.43,4.53,2.12,6.8.94,3.1,1.85,6.2,2.77,9.3.72,2.45,1.42,4.9,2.13,7.35.34.47.85.29,1.29.29h27.86a2.52,2.52,0,0,0,1.06-.08c-.06-1.82.73-3.45,1.19-5.14,1.93-7.1,4-14.16,5.9-21.26,2-7.43,4.19-14.82,6.27-22.23,1.57-5.56,3.07-11.14,4.66-16.69a4.23,4.23,0,0,1,.81-2.09v67.41a3.45,3.45,0,0,0,1.28.07H-118.7a4.56,4.56,0,0,1,.64,0c.72.11.91-.21.89-.9,0-2.14,0-4.28,0-6.42,0-.3-.24-.73.26-.91,2.19,2.53,5.11,3.85,8.16,4.91a54.12,54.12,0,0,0,12.46,2.63c.33.15.73-.09,1.05.16a2.74,2.74,0,0,1,1.1.09c.35.07.73-.1,1.07.12l1.49.06c.56.16,1.16-.1,1.72.15a12.3,12.3,0,0,1,2.35.1c1.92.1,3.84-.14,5.76.12h6.88c1.05-.28,2.14,0,3.19-.16l2-.05c.54-.28,1.14,0,1.69-.16l1.31-.05c.4-.24.84-.05,1.25-.13a2.78,2.78,0,0,1,1.11-.09c.31-.25.71,0,1-.16a7.59,7.59,0,0,1,1.22-.26,49.56,49.56,0,0,0,9.52-1.74A22.94,22.94,0,0,0-43.66,366c6.83-5.43,9.88-12.8,10.28-21.32C-33.16,340.13-33.34,335.56-33.34,331Zm-472.59-41.1a86.79,86.79,0,0,0-1.9,11.43c-.07.69-.28.88-1,.88q-16,0-32,0c-.8,0-.91-.29-.91-1,0-3.77,0-7.55,0-11.33,0-.83.26-1,1-1,5.67,0,11.34,0,17,0s11.27,0,16.9,0C-506,288.9-505.71,289-505.93,289.89Zm66.71,41.46a12.8,12.8,0,0,1-7.86,12.1,10.17,10.17,0,0,1-3.65.67h-13.16a13.14,13.14,0,0,1-12.69-12.69c0-5.13,0-10.27,0-15.4V301.28a12.09,12.09,0,0,1,10-12,22.42,22.42,0,0,1,4.25-.32h11.13a11.54,11.54,0,0,1,12,12Q-439.2,316.12-439.22,331.35Zm84-24.17a12.24,12.24,0,0,1-11.6,8.42c-5.38-.11-10.75-.21-16.13-.34-.71,0-.8-.27-.79-.87,0-4.25,0-8.49,0-12.73s0-8.49,0-12.73c0-.71.19-.89.89-.89,5.6,0,11.2,0,16.8,0a11.65,11.65,0,0,1,11.57,11.21A20.88,20.88,0,0,1-355.24,307.18ZM-126,343.26H-148.4c-7.29,0-14.57,0-21.85,0-1,0-1.21-.31-1.2-1.25,0-4,0-8.06,0-12.09,0-.75.19-.93.94-.93q21.36,0,42.72,0c.55,0,.88,0,1,.73.37,4.31.86,8.61,1.64,12.86C-125,343.44-125.6,343.26-126,343.26Zm1.78-54.26A39.69,39.69,0,0,0-127,300.77c-.11,1.07-.36,1.45-1.55,1.45q-20.87-.09-41.72,0c-1,0-1.23-.27-1.22-1.23.06-3.92,0-7.84,0-11.76,0-.92.18-1.19,1.16-1.19,7.56.05,15.12,0,22.68,0s15.12,0,22.68,0C-124.11,288-123.87,288.13-124.25,289Z" transform="translate(796.62 -238.41)"/><path class="cls-7" d="M-70.24,387.84a9.08,9.08,0,0,0-11.66.9,11.43,11.43,0,0,0-3.33,8.73,11.32,11.32,0,0,0,.24,2.89A11.23,11.23,0,0,0-80.6,407a8.11,8.11,0,0,0,5.93,1.42,8.77,8.77,0,0,0,6.18-3.28,11.47,11.47,0,0,0,2.57-5.92C-65.28,394.57-66.49,390.7-70.24,387.84Zm-1.34,16.3a6.15,6.15,0,0,1-8.09-.28c-3.7-3.33-3.57-10.13.26-13.3,3.19-2.64,7.67-1.59,9.79,2.3a9.48,9.48,0,0,1,1.09,5A8.68,8.68,0,0,1-71.58,404.14Z" transform="translate(796.62 -238.41)"/><path class="cls-7" d="M-410.56,388.17a9.12,9.12,0,0,0-13.2,1.85,11.78,11.78,0,0,0-2.27,6.43q0,.74,0,1.47c.17.86.11,1.74.33,2.6a10.83,10.83,0,0,0,4.83,6.8,8.38,8.38,0,0,0,5,1.11,9.07,9.07,0,0,0,6.17-2.75,11.51,11.51,0,0,0,3.18-7.42C-406.22,394.28-407.37,390.77-410.56,388.17Zm-1.82,16c-3.07,2.54-7.63,1.36-9.7-2.51a10,10,0,0,1-1.07-4.68,8.88,8.88,0,0,1,2.52-6c2.78-2.87,6.92-2.51,9.55.79A9.18,9.18,0,0,1-412.38,404.2Z" transform="translate(796.62 -238.41)"/><path class="cls-7" d="M-237.89,392.9c-1.11-3.25-3.15-5.41-6.67-5.93-2.71-.06-5.43-.13-8.14,0,0,.89,0,1.78,0,2.67,0,5.95,0,11.9,0,17.84,0,.4-.24,1,.59.92a54.81,54.81,0,0,0,6.9-.23,8.46,8.46,0,0,0,6-3.7A12.7,12.7,0,0,0-237.89,392.9Zm-2.69,8c-.94,2.79-3.12,3.87-5.93,3.92-1.09,0-2.5.36-3.2-.17s-.17-2-.19-3.05c0-1.46,0-2.92,0-4.38,0-2.24,0-4.49,0-6.73,0-.62.17-.79.77-.77,1.11.05,2.21,0,3.32,0a5.13,5.13,0,0,1,4.76,3A10.08,10.08,0,0,1-240.58,400.86Z" transform="translate(796.62 -238.41)"/><path class="cls-7" d="M-325.2,395.6c-.1-.44-.19-.88-.3-1.32-1-3.75-2.88-6.65-7.07-7.31-2.46-.11-4.92,0-7.38-.07-.91,0-1.1.28-1.09,1.14,0,6.48,0,13,0,19.44a2.14,2.14,0,0,0,.08.94h6.46c.32-.26.71,0,1.05-.17a9,9,0,0,0,6.17-3.76,13.93,13.93,0,0,0,2-5.29C-325.13,398-325.2,396.8-325.2,395.6Zm-3.79,6c-1.07,2.37-3.21,3.06-5.61,3.12-1.18,0-2.68.41-3.43-.16s-.18-2.14-.21-3.26c0-1.39,0-2.78,0-4.17,0-2.14.05-4.28,0-6.41,0-.93.28-1.15,1.14-1.09,1,.07,2.07,0,3.1,0a5.1,5.1,0,0,1,4.88,3A10,10,0,0,1-329,401.65Z" transform="translate(796.62 -238.41)"/><path class="cls-7" d="M-292.73,407.49c-1.7-4.88-3.41-9.76-5-14.67a39.35,39.35,0,0,1-1.82-5.6,3.71,3.71,0,0,0-3.22,0c-2.43,7-4.86,14.08-7.31,21.2h1c2,0,1.93,0,2.58-1.87a50,50,0,0,1,1.71-5.19,44.66,44.66,0,0,1,7.13,0,41.07,41.07,0,0,1,1.69,5.17c.67,1.91.67,1.87,2.68,1.91C-292.48,408.46-292.48,408.19-292.73,407.49Zm-11.18-9.09c.87-2.64,1.72-5.24,2.65-8.08.95,2.85,1.81,5.42,2.69,8.08Z" transform="translate(796.62 -238.41)"/><path class="cls-7" d="M-493.4,407q-3.41-10-6.84-19.95a8.35,8.35,0,0,0-3,.06c-1.46,4.28-2.92,8.57-4.4,12.84-1,2.81-2,5.59-2.86,8.52.7,0,1.35-.05,2,0,.79.09,1-.24,1.24-1a46.84,46.84,0,0,1,2-6.08,44.66,44.66,0,0,1,7.13,0,1.3,1.3,0,0,1,.26.33c.52,1.85,1.2,3.68,1.63,5.54.27,1.19.8,1.22,1.71,1.2C-492.91,408.39-492.9,408.41-493.4,407Zm-6.42-8.46c-1.31-.06-2.63,0-3.95,0-.37,0-.65,0-.48-.52.82-2.44,1.63-4.88,2.53-7.57.88,2.58,1.66,4.93,2.48,7.26C-499,398.25-499,398.52-499.82,398.49Z" transform="translate(796.62 -238.41)"/></svg>