<svg xmlns="http://www.w3.org/2000/svg" xmlns:xlink="http://www.w3.org/1999/xlink" viewBox="0 0 477.32 106.93"><defs><style>.cls-1{fill:url(#radial-gradient);}.cls-2{fill:url(#linear-gradient);}.cls-3{fill:url(#linear-gradient-2);}.cls-4{fill:url(#linear-gradient-3);}.cls-5{fill:#fff;stroke:#f6f6f6;stroke-miterlimit:10;}.cls-6{font-size:89.35px;fill:#211033;font-family:AgencyFB-Reg, Agency FB;}</style><radialGradient id="radial-gradient" cx="88.73" cy="225.67" r="49.6" gradientUnits="userSpaceOnUse"><stop offset="0.17" stop-color="#4674b5"/><stop offset="0.33" stop-color="#4878b5"/><stop offset="0.49" stop-color="#4f84b6"/><stop offset="0.66" stop-color="#5998b6"/><stop offset="0.82" stop-color="#68b4b7"/><stop offset="0.98" stop-color="#7cd8b9"/><stop offset="1" stop-color="#7edcb9"/></radialGradient><linearGradient id="linear-gradient" x1="96.26" y1="221.06" x2="159.03" y2="221.06" gradientUnits="userSpaceOnUse"><stop offset="0" stop-color="#7edcb9"/><stop offset="0.02" stop-color="#7cd8b9"/><stop offset="0.18" stop-color="#68b4b7"/><stop offset="0.34" stop-color="#5998b6"/><stop offset="0.51" stop-color="#4f84b6"/><stop offset="0.67" stop-color="#4878b5"/><stop offset="0.83" stop-color="#4674b5"/></linearGradient><linearGradient id="linear-gradient-2" x1="1699.32" y1="173.58" x2="1744.18" y2="173.58" gradientTransform="translate(1880.21 421.26) rotate(180)" gradientUnits="userSpaceOnUse"><stop offset="0.01" stop-color="#8c0053"/><stop offset="0.14" stop-color="#8f0651"/><stop offset="0.32" stop-color="#99174d"/><stop offset="0.53" stop-color="#a93445"/><stop offset="0.76" stop-color="#bf5b3b"/><stop offset="1" stop-color="#db8d2e"/></linearGradient><linearGradient id="linear-gradient-3" x1="1708.5" y1="153.22" x2="1771.27" y2="153.22" gradientTransform="translate(1880.21 421.26) rotate(180)" gradientUnits="userSpaceOnUse"><stop offset="0" stop-color="#db8d2e"/><stop offset="0.24" stop-color="#bf5b3b"/><stop offset="0.47" stop-color="#a93445"/><stop offset="0.68" stop-color="#99174d"/><stop offset="0.86" stop-color="#8f0651"/><stop offset="0.99" stop-color="#8c0053"/></linearGradient></defs><g id="OBJECTS"><path class="cls-1" d="M116.72,261.23a8.9,8.9,0,0,0,12.61,0h0a8.9,8.9,0,0,0,0-12.61l-27-27a8.93,8.93,0,0,0-12.62,0h0a8.92,8.92,0,0,0,0,12.62l16,15.94Z" transform="translate(-87.01 -191.41)"/><path class="cls-2" d="M129.33,194.57a8.9,8.9,0,0,0-12.61,0l-27,27a8.75,8.75,0,0,0-.36,12.25l.14.15.18.18,0,0s0,0,0,0l15.94,15.92c-8.58-8.58,2.94-22.26,2.94-22.26h0l20.71-20.72A8.9,8.9,0,0,0,129.33,194.57Z" transform="translate(-87.01 -191.41)"/><path class="cls-3" d="M151.26,227.86a8.93,8.93,0,0,0-12.62,0h0a8.93,8.93,0,0,0,0,12.62l27,27a8.91,8.91,0,0,0,12.62,0h0a8.92,8.92,0,0,0,0-12.61l-16-15.95Z" transform="translate(-87.01 -191.41)"/><path class="cls-4" d="M138.64,294.53a8.93,8.93,0,0,0,12.62,0l27-27a8.76,8.76,0,0,0,.36-12.25l-.14-.15-.18-.17,0-.05-.05,0L162.3,238.93c8.58,8.59-2.94,22.27-2.94,22.27h0l-20.72,20.71A8.93,8.93,0,0,0,138.64,294.53Z" transform="translate(-87.01 -191.41)"/><path class="cls-5" d="M128.46,291a8.64,8.64,0,0,1-10.82,5.67h0A8.64,8.64,0,0,1,112,285.81L139.92,198a8.64,8.64,0,0,1,10.83-5.67h0a8.63,8.63,0,0,1,5.66,10.82Z" transform="translate(-87.01 -191.41)"/><text class="cls-6" transform="translate(105.59 89.05)">MIGHTY CODE</text></g></svg>