<svg xmlns="http://www.w3.org/2000/svg" xmlns:xlink="http://www.w3.org/1999/xlink" viewBox="0 0 477.32 106.93"><defs><style>.cls-1{fill:url(#radial-gradient);}.cls-2{fill:url(#linear-gradient);}.cls-3{fill:url(#linear-gradient-2);}.cls-4{fill:url(#linear-gradient-3);}.cls-5,.cls-6{fill:#fff;}.cls-5{stroke:#f6f6f6;stroke-miterlimit:10;}.cls-6{font-size:89.35px;font-family:AgencyFB-Reg, Agency FB;}</style><radialGradient id="radial-gradient" cx="587.01" cy="147.52" r="49.6" gradientUnits="userSpaceOnUse"><stop offset="0.17" stop-color="#4674b5"/><stop offset="0.33" stop-color="#4878b5"/><stop offset="0.49" stop-color="#4f84b6"/><stop offset="0.66" stop-color="#5998b6"/><stop offset="0.82" stop-color="#68b4b7"/><stop offset="0.98" stop-color="#7cd8b9"/><stop offset="1" stop-color="#7edcb9"/></radialGradient><linearGradient id="linear-gradient" x1="594.54" y1="142.9" x2="657.31" y2="142.9" gradientUnits="userSpaceOnUse"><stop offset="0" stop-color="#7edcb9"/><stop offset="0.02" stop-color="#7cd8b9"/><stop offset="0.18" stop-color="#68b4b7"/><stop offset="0.34" stop-color="#5998b6"/><stop offset="0.51" stop-color="#4f84b6"/><stop offset="0.67" stop-color="#4878b5"/><stop offset="0.83" stop-color="#4674b5"/></linearGradient><linearGradient id="linear-gradient-2" x1="1201.05" y1="251.73" x2="1245.91" y2="251.73" gradientTransform="translate(1880.21 421.26) rotate(180)" gradientUnits="userSpaceOnUse"><stop offset="0.01" stop-color="#8c0053"/><stop offset="0.14" stop-color="#8f0651"/><stop offset="0.32" stop-color="#99174d"/><stop offset="0.53" stop-color="#a93445"/><stop offset="0.76" stop-color="#bf5b3b"/><stop offset="1" stop-color="#db8d2e"/></linearGradient><linearGradient id="linear-gradient-3" x1="1210.23" y1="231.37" x2="1272.99" y2="231.37" gradientTransform="translate(1880.21 421.26) rotate(180)" gradientUnits="userSpaceOnUse"><stop offset="0" stop-color="#db8d2e"/><stop offset="0.24" stop-color="#bf5b3b"/><stop offset="0.47" stop-color="#a93445"/><stop offset="0.68" stop-color="#99174d"/><stop offset="0.86" stop-color="#8f0651"/><stop offset="0.99" stop-color="#8c0053"/></linearGradient></defs><g id="OBJECTS"><path class="cls-1" d="M615,183.08a8.91,8.91,0,0,0,12.62,0h0a8.92,8.92,0,0,0,0-12.61l-27-27a8.91,8.91,0,0,0-12.62,0h0a8.93,8.93,0,0,0,0,12.62L604,172Z" transform="translate(-585.29 -113.26)"/><path class="cls-2" d="M627.61,116.41a8.93,8.93,0,0,0-12.62,0l-27,27a8.75,8.75,0,0,0-.35,12.25l.14.15.18.18,0,0,0,0L604,172c-8.59-8.58,2.94-22.26,2.94-22.26h0L627.61,129A8.93,8.93,0,0,0,627.61,116.41Z" transform="translate(-585.29 -113.26)"/><path class="cls-3" d="M649.54,149.71a8.91,8.91,0,0,0-12.62,0h0a8.92,8.92,0,0,0,0,12.61l27,27a8.9,8.9,0,0,0,12.61,0h0a8.91,8.91,0,0,0,0-12.62l-16-15.94Z" transform="translate(-585.29 -113.26)"/><path class="cls-4" d="M636.92,216.37a8.91,8.91,0,0,0,12.62,0l27-27a8.74,8.74,0,0,0,.36-12.25l-.14-.15-.18-.18s0,0,0,0l0,0-15.94-15.92c8.58,8.58-2.94,22.26-2.94,22.26h0l-20.71,20.72A8.92,8.92,0,0,0,636.92,216.37Z" transform="translate(-585.29 -113.26)"/><path class="cls-5" d="M626.74,212.82a8.63,8.63,0,0,1-10.82,5.66h0a8.63,8.63,0,0,1-5.67-10.82l28-87.84A8.63,8.63,0,0,1,649,114.16h0A8.64,8.64,0,0,1,654.69,125Z" transform="translate(-585.29 -113.26)"/><text class="cls-6" transform="translate(105.59 89.05)">MIGHTY CODE</text></g></svg>